<svg xmlns="http://www.w3.org/2000/svg" viewBox="0 0 63 37">
  <g id="AgenceMe-Logo" fill-rule="evenodd">
    <path fill-opacity=".6" d="M47.5680663 0h12.7250076c.6862841 0 1.2426272.55634314 1.2426272 1.24262717 0 .28624486-.0988236.5637126-.2797697.7855112L39.0564375 29.2396505c-.2426008.2973731-.6089955.4659639-.9926636.4567584l-12.9049929-.3096333c-.6860866-.0164614-1.228925-.5859892-1.2124635-1.2720758.0067186-.2800212.1078469-.5495593.2869806-.7648919L46.6127772.44792907C46.8488641.1641342 47.1989097 0 47.5680663 0zM23.8773479 0h12.7222466c.686284 0 1.2426272.55634314 1.2426272 1.24262717 0 .28624486-.0988237.5637126-.2797698.7855112L15.3513461 29.253884c-.2359917.289272-.589534.457116-.9628574.457116H1.39561963c-.68628404 0-1.24262718-.5563431-1.24262718-1.2426272 0-.2887789.10057817-.5685416.28445183-.7912157L22.9191726.45141146C23.1552328.16553863 23.5066085 0 23.8773479 0z"/>
    <path d="M47.9418129 0h13.7260736c.6862841 0 1.2426272.55634314 1.2426272 1.24262717V22.9856977c0 .3512027-.1486149.6860049-.4090827.9215889L48.7753573 36.3220335c-.5089795.4603539-1.2947794.4209351-1.7551333-.0880444-.2066277-.228453-.3210383-.525509-.3210383-.8335444V1.24262717C46.6991857.55634314 47.2555288 0 47.9418129 0z"/>
    <rect width="16.211" height="29.711" x="23.006" rx="1.243"/>
  </g>
</svg>
